<svg width="124" height="124" viewBox="0 0 124 124" fill="none" xmlns="http://www.w3.org/2000/svg">
<g filter="url(#filter0_d_423_1595)">
<rect x="4" width="116" height="116" fill="white"/>
</g>
<path opacity="0.25" d="M57.1563 91.4585C77.677 91.4585 94.3125 75.8165 94.3125 56.521C94.3125 37.2255 77.677 21.5835 57.1563 21.5835C36.6355 21.5835 20 37.2255 20 56.521C20 75.8165 36.6355 91.4585 57.1563 91.4585Z" fill="#C16AFF"/>
<path opacity="0.5" d="M74.1213 76.6233C82.9902 76.6233 90.18 69.5162 90.18 60.7492C90.18 51.9822 82.9902 44.875 74.1213 44.875C65.2523 44.875 58.0625 51.9822 58.0625 60.7492C58.0625 69.5162 65.2523 76.6233 74.1213 76.6233Z" fill="#C16AFF"/>
<path opacity="0.5" d="M74.375 98.6253C90.3913 98.6253 103.375 85.7909 103.375 69.9587C103.375 54.1264 90.3913 41.292 74.375 41.292C58.3587 41.292 45.375 54.1264 45.375 69.9587C45.375 85.7909 58.3587 98.6253 74.375 98.6253Z" fill="#EF643B"/>
<path opacity="0.5" d="M72.5625 80.7085C88.5788 80.7085 101.562 67.4729 101.562 51.146C101.562 34.8191 88.5788 21.5835 72.5625 21.5835C56.5462 21.5835 43.5625 34.8191 43.5625 51.146C43.5625 67.4729 56.5462 80.7085 72.5625 80.7085Z" fill="#FFEB3B"/>
<path d="M60.6809 84.2915H48.191C47.5421 84.2915 46.944 84.6337 46.6195 85.1909C46.2969 85.7463 46.2987 86.4308 46.625 86.9844C48.2508 89.7435 51.245 91.4582 54.4368 91.4582C57.6286 91.4582 60.6211 89.7435 62.2487 86.9844C62.575 86.4308 62.5768 85.7463 62.2542 85.1909C61.9297 84.6337 61.3316 84.2915 60.6809 84.2915Z" fill="black"/>
<path d="M81.1189 79.4667L76.5622 74.7923L74.3691 48.3132C73.5354 38.2655 68.3661 31.5486 60.2099 29.4559C61.1234 28.2555 61.687 26.7792 61.687 25.1667C61.687 21.2142 58.4354 18 54.437 18C50.4387 18 47.187 21.2142 47.187 25.1667C47.187 26.7792 47.7489 28.2555 48.6624 29.4541C40.5062 31.5468 35.3369 38.2655 34.505 48.3132L32.3119 74.7923L27.757 79.4667C27.2532 79.9827 27.11 80.7495 27.3945 81.4107C27.6791 82.0718 28.3352 82.5 29.062 82.5H79.812C80.5389 82.5 81.1968 82.0718 81.4795 81.4107C81.7641 80.7477 81.6209 79.9827 81.1189 79.4667ZM50.812 25.1667C50.812 23.1905 52.4379 21.5833 54.437 21.5833C56.4362 21.5833 58.062 23.1905 58.062 25.1667C58.062 27.1429 56.4362 28.75 54.437 28.75C52.4379 28.75 50.812 27.1429 50.812 25.1667Z" fill="black"/>
<defs>
<filter id="filter0_d_423_1595" x="0" y="0" width="124" height="124" filterUnits="userSpaceOnUse" color-interpolation-filters="sRGB">
<feFlood flood-opacity="0" result="BackgroundImageFix"/>
<feColorMatrix in="SourceAlpha" type="matrix" values="0 0 0 0 0 0 0 0 0 0 0 0 0 0 0 0 0 0 127 0" result="hardAlpha"/>
<feOffset dy="4"/>
<feGaussianBlur stdDeviation="2"/>
<feComposite in2="hardAlpha" operator="out"/>
<feColorMatrix type="matrix" values="0 0 0 0 0 0 0 0 0 0 0 0 0 0 0 0 0 0 0.25 0"/>
<feBlend mode="normal" in2="BackgroundImageFix" result="effect1_dropShadow_423_1595"/>
<feBlend mode="normal" in="SourceGraphic" in2="effect1_dropShadow_423_1595" result="shape"/>
</filter>
</defs>
</svg>
