<svg width="124" height="124" viewBox="0 0 124 124" fill="none" xmlns="http://www.w3.org/2000/svg">
<g filter="url(#filter0_d_423_1614)">
<rect x="4" width="116" height="116" fill="white"/>
</g>
<g clip-path="url(#clip0_423_1614)">
<path opacity="0.25" d="M61.6986 101.812C78.0888 101.812 91.3757 88.1663 91.3757 71.3332C91.3757 54.5 78.0888 40.854 61.6986 40.854C45.3083 40.854 32.0215 54.5 32.0215 71.3332C32.0215 88.1663 45.3083 101.812 61.6986 101.812Z" fill="#C16AFF"/>
<path opacity="0.5" d="M60.0931 79.3543C73.8254 79.3543 84.9577 67.863 84.9577 53.6877C84.9577 39.5123 73.8254 28.021 60.0931 28.021C46.3608 28.021 35.2285 39.5123 35.2285 53.6877C35.2285 67.863 46.3608 79.3543 60.0931 79.3543Z" fill="#FFEB3B"/>
<path opacity="0.5" d="M91.3757 53.6873C97.5774 53.6873 102.605 48.6599 102.605 42.4582C102.605 36.2565 97.5774 31.229 91.3757 31.229C85.1739 31.229 80.1465 36.2565 80.1465 42.4582C80.1465 48.6599 85.1739 53.6873 91.3757 53.6873Z" fill="#C16AFF"/>
<path opacity="0.5" d="M80.9486 100.208C94.6809 100.208 105.813 88.717 105.813 74.5417C105.813 60.3663 94.6809 48.875 80.9486 48.875C67.2163 48.875 56.084 60.3663 56.084 74.5417C56.084 88.717 67.2163 100.208 80.9486 100.208Z" fill="#EF643B"/>
<path d="M45.873 21.096C45.9785 21.0961 46.0839 21.0962 46.1925 21.0963C50.3851 21.1116 53.8819 22.4343 57.1777 25.0171C57.6916 24.7309 58.1962 24.4416 58.6894 24.1207C62.9901 21.3477 68.5381 20.3743 73.5637 21.3954C78.5327 22.5179 83.095 25.4081 85.9288 29.6866C87.3834 31.9883 88.6495 34.4856 88.9237 37.2244C89.0194 37.2212 89.1152 37.218 89.2138 37.2146C92.7441 37.1113 95.9882 37.6996 98.6798 40.1604C98.8197 40.2877 98.9597 40.415 99.1038 40.5461C100.535 41.9086 101.534 43.4174 102.242 45.2597C102.303 45.4184 102.364 45.5772 102.427 45.7408C103.439 48.859 103.068 52.2968 101.651 55.2072C101.072 56.3371 100.405 57.3467 99.4541 58.2011C99.3519 58.3158 99.2497 58.4305 99.1444 58.5487C99.1897 59.3088 99.5954 59.9789 99.9187 60.6541C103.098 67.512 103.95 74.8789 101.364 82.0503C100.264 84.9284 98.6481 87.4731 96.539 89.7119C96.2765 89.9921 96.0329 90.2729 95.7956 90.5738C95.3061 91.1393 94.7669 91.6068 94.1889 92.0804C94.0454 92.1986 93.9018 92.3167 93.754 92.4384C90.7795 94.8312 87.3482 96.3979 83.6585 97.3342C83.5535 97.362 83.4485 97.3897 83.3403 97.4182C79.8174 98.3067 75.3746 98.1383 71.8893 97.1797C71.6669 97.1187 71.6669 97.1187 71.44 97.0565C67.6192 95.969 64.2759 94.1533 61.3698 91.4497C61.1056 91.2054 60.8381 90.9795 60.5556 90.7573C59.9859 90.2647 59.5138 89.7251 59.036 89.1445C58.9176 89.0013 58.7993 88.858 58.6773 88.7105C56.2799 85.7432 54.7074 82.3183 53.7708 78.6369C53.743 78.5313 53.7153 78.4257 53.6867 78.3169C52.4038 73.2028 53.2861 66.7788 55.6291 62.1028C55.4569 62.1025 55.4569 62.1025 55.2812 62.1021C52.4814 62.0964 49.6816 62.0872 46.8817 62.0744C45.5277 62.0682 44.1737 62.0632 42.8197 62.0609C41.6389 62.0589 40.4581 62.0547 39.2773 62.048C38.6527 62.0445 38.0281 62.0421 37.4034 62.0422C36.8141 62.0424 36.2249 62.0396 35.6356 62.0346C35.4207 62.0333 35.2057 62.033 34.9907 62.0339C32.6639 62.0421 30.3819 61.3614 28.6347 59.756C26.6303 57.6028 25.9507 55.3127 26.0028 52.4414C26.0964 50.1631 27.193 48.2059 28.8386 46.6504C29.1936 46.3822 29.5559 46.1301 29.9226 45.8778C29.8609 45.7039 29.7992 45.53 29.7357 45.3508C28.0174 40.4307 27.9235 35.3568 30.2171 30.6053C32.3513 26.4095 35.9724 23.4482 40.3774 21.8885C42.2116 21.2972 43.9473 21.0934 45.873 21.096ZM35.9621 27.4894C35.8269 27.6137 35.6918 27.738 35.5526 27.8661C33.0189 30.292 31.2004 33.7744 31.1246 37.3289C31.0607 41.1509 31.9581 43.9409 33.7941 47.2685C33.596 47.3004 33.398 47.3322 33.194 47.3651C31.7492 47.691 30.5254 48.5916 29.6129 49.7409C28.6162 51.3836 28.4078 53.1528 28.7842 55.0327C29.3061 56.6019 30.3739 57.8439 31.7809 58.7033C33.4552 59.4873 35.0793 59.4984 36.8967 59.4934C37.115 59.4934 37.3334 59.4934 37.5518 59.4935C38.1413 59.4935 38.7309 59.4926 39.3205 59.4916C39.9378 59.4906 40.5552 59.4905 41.1725 59.4903C42.3401 59.4898 43.5077 59.4886 44.6753 59.487C46.0052 59.4853 47.3351 59.4844 48.665 59.4837C51.3993 59.482 54.1337 59.4793 56.868 59.4759C56.9242 59.3765 56.9803 59.277 57.0382 59.1746C57.2977 58.7154 57.5574 58.2563 57.8171 57.7972C57.9496 57.5628 57.9496 57.5628 58.0847 57.3235C60.6488 52.7923 63.6105 48.6479 66.9338 44.6416C67.0085 44.5516 67.0831 44.4615 67.16 44.3688C68.0627 43.284 68.9943 42.2315 69.9547 41.1974C70.2774 40.8472 70.5917 40.4925 70.902 40.1314C71.4 39.5573 71.937 39.0286 72.4785 38.4956C72.7924 38.1779 73.0881 37.8522 73.3798 37.5142C74.1619 36.6081 75.0103 35.8042 75.918 35.0249C76.3199 34.668 76.6936 34.2869 77.0704 33.904C77.3379 33.6425 77.6191 33.417 77.9288 33.2068C79.0401 33.7122 79.8735 34.6745 80.718 35.5319C81.0073 35.8155 81.3058 36.0759 81.6163 36.3359C82.0091 36.6675 82.3579 37.0135 82.6943 37.4007C82.8063 37.5288 82.8063 37.5288 82.9206 37.6595C83.0685 37.8307 83.2142 38.0038 83.3575 38.1789C83.5824 38.4503 83.5824 38.4503 83.9682 38.7697C84.5657 38.7706 85.0413 38.4911 85.5652 38.2192C85.702 38.1489 85.8387 38.0786 85.9796 38.0061C86.0824 37.9521 86.1852 37.8982 86.2911 37.8425C86.2117 36.834 86.0214 35.9763 85.662 35.0321C85.6137 34.9045 85.5655 34.7769 85.5158 34.6454C83.8152 30.287 80.5007 27.045 76.2888 25.0647C72.0499 23.2636 67.332 23.1828 63.0302 24.8397C60.911 25.7055 59.0959 26.9348 57.4366 28.5095C57.1777 28.7256 57.1777 28.7256 56.868 28.7256C56.705 28.526 56.5518 28.3182 56.4034 28.1075C54.5814 25.7159 51.4171 24.2573 48.4711 23.8285C48.3292 23.8128 48.1873 23.7971 48.0411 23.7809C47.8688 23.7603 47.6965 23.7398 47.519 23.7187C43.2911 23.3214 39.0928 24.5862 35.9621 27.4894ZM77.3076 37.1872C77.2245 37.2712 77.1414 37.3552 77.0559 37.4417C76.9695 37.528 76.8831 37.6142 76.7942 37.7031C76.6106 37.8867 76.4275 38.0706 76.2447 38.255C75.9686 38.5332 75.6913 38.8103 75.4138 39.0872C74.6002 39.9016 73.797 40.7172 73.0489 41.5927C72.6579 42.0465 72.2427 42.4776 71.8312 42.9129C71.1104 43.6815 70.4246 44.4668 69.7654 45.2893C69.513 45.5988 69.2584 45.9011 68.9947 46.2007C67.7566 47.608 66.6258 49.0823 65.5149 50.5911C65.2467 50.9549 64.9765 51.3171 64.7059 51.6791C60.1719 57.7899 55.9069 65.2662 55.9001 73.0547C55.9 73.162 55.8999 73.2694 55.8998 73.38C55.9024 75.0259 55.9921 76.5719 56.4034 78.1733C56.4267 78.2736 56.45 78.3739 56.474 78.4772C57.1357 81.3102 58.4799 84.0758 60.2749 86.363C60.3859 86.5077 60.4969 86.6523 60.6112 86.8013C62.6458 89.3714 65.1123 91.3479 68.0178 92.8531C68.1951 92.9465 68.3723 93.0399 68.555 93.1361C70.7258 94.2369 73.1838 94.9378 75.6059 95.1709C75.7997 95.1914 75.9935 95.2119 76.1932 95.2331C81.6499 95.7297 87.4653 94.0557 91.7323 90.604C93.1853 89.3658 94.5861 88.121 95.7278 86.5852C95.8078 86.4778 95.8878 86.3705 95.9702 86.2599C96.7051 85.2566 97.3311 84.2221 97.9055 83.118C97.9991 82.9412 98.0928 82.7643 98.1892 82.582C98.7521 81.4767 99.1568 80.3488 99.5025 79.1584C99.5588 78.965 99.5588 78.965 99.6163 78.7678C101.331 72.5475 99.7494 66.3524 96.9763 60.7121C96.8821 60.5196 96.8821 60.5196 96.786 60.3233C95.1499 57.0169 93.1593 53.9196 90.9369 50.9771C90.808 50.8059 90.808 50.8059 90.6766 50.6312C89.6574 49.2798 88.6186 47.9471 87.53 46.6504C87.4642 46.5716 87.3984 46.4928 87.3306 46.4117C86.4636 45.3743 85.5804 44.3569 84.6627 43.3638C84.3562 43.0276 84.0554 42.6883 83.7565 42.3455C82.3737 40.7644 80.9086 39.2557 79.4289 37.7653C79.3151 37.6497 79.2012 37.534 79.0839 37.4149C78.978 37.309 78.8721 37.2032 78.7629 37.0941C78.669 36.9997 78.5752 36.9054 78.4784 36.8083C77.9556 36.3683 77.7138 36.7844 77.3076 37.1872ZM85.9814 40.7785C86.4306 41.302 86.88 41.8253 87.3316 42.3467C91.0219 46.613 94.9007 51.1615 97.4409 56.2309C98.4414 55.8484 99.0079 54.7176 99.4287 53.7787C100.433 51.2712 100.676 48.515 99.693 45.952C98.5595 43.4007 96.5663 41.4213 93.9953 40.3246C91.2257 39.3645 88.659 39.7147 85.9814 40.7785Z" fill="black"/>
<path d="M93.5135 63.3589C94.4135 63.9036 95.1429 64.75 95.4547 65.7574C95.5812 66.9905 95.597 68.138 94.8366 69.1619C94.4889 69.5487 94.4889 69.5487 94.2185 69.7809C94.3921 70.3024 94.5141 70.3893 94.9331 70.719C96.5661 72.1178 97.7846 74.383 97.9609 76.5396C98.0349 78.3777 98.0859 80.1515 97.309 81.8511C97.2356 82.0167 97.1623 82.1823 97.0868 82.3529C95.8471 84.8895 93.7807 86.6209 91.128 87.5768C88.4364 88.3592 85.4734 88.0472 83.0282 86.7195C80.6423 85.3363 79.0956 83.1462 78.285 80.5201C77.8086 78.5069 77.9037 76.0002 78.7661 74.1138C78.8394 73.9482 78.9127 73.7826 78.9882 73.6121C80.2922 70.9438 82.4791 69.2513 85.2633 68.2775C86.1661 68.0216 87.1051 67.983 88.0375 67.9239C88.0303 67.7819 88.0232 67.6398 88.0158 67.4935C87.9541 65.3942 87.9541 65.3942 88.6556 64.5195C89.9384 63.1704 91.7023 62.5551 93.5135 63.3589ZM90.9155 66.0089C90.5892 66.4866 90.5699 66.7367 90.6644 67.3049C90.8962 67.6918 90.8962 67.6918 91.2825 67.9239C91.8499 68.0186 92.0997 67.9993 92.5766 67.6724C92.903 67.1948 92.9223 66.9446 92.8278 66.3764C92.596 65.9896 92.596 65.9896 92.2097 65.7574C91.6423 65.6627 91.3925 65.6821 90.9155 66.0089ZM82.4119 73.195C80.8909 75.0466 80.5485 77.0426 80.7749 79.3752C81.1365 81.2938 82.3367 82.9881 83.9136 84.1192C85.7807 85.3111 87.8012 85.5632 89.9654 85.154C91.9778 84.55 93.6201 83.1434 94.6374 81.321C95.5069 79.5821 95.617 77.4491 95.0587 75.5839C94.2944 73.6355 92.8507 72.0797 90.9735 71.1736C90.0234 70.7819 89.1687 70.6282 88.1437 70.6416C87.9518 70.6436 87.9518 70.6436 87.756 70.6455C85.5984 70.7047 83.8865 71.6346 82.4119 73.195Z" fill="black"/>
<path d="M80.0834 43.3231C81.0546 43.8536 81.8556 44.6836 82.1859 45.6678C82.2245 46.189 82.2245 46.189 82.2173 46.7457C82.2162 46.9301 82.2152 47.1146 82.214 47.3047C82.1859 47.7857 82.1859 47.7857 82.0186 48.2395C82.1631 48.2557 82.3077 48.2718 82.4566 48.2885C84.6021 48.6759 86.2479 50.1314 87.5318 51.649C89.0231 53.7232 89.2632 56.2342 88.7642 58.6312C88.6125 59.0725 88.4346 59.4722 88.2111 59.8875C88.1343 60.033 88.0575 60.1784 87.9784 60.3283C86.6847 62.6114 84.6471 63.9022 81.9918 64.7448C79.9693 65.1687 77.5336 65.0988 75.6587 64.2744C75.4977 64.205 75.3368 64.1356 75.1709 64.064C72.6468 62.8956 71.2112 61.0526 70.2853 58.6513C69.7129 56.4374 69.9841 53.9992 71.2594 52.0325C71.5379 51.6607 71.8316 51.3112 72.144 50.9624C72.2717 50.8033 72.3994 50.6441 72.531 50.4802C73.1622 49.8831 73.893 49.4476 74.6545 48.9958C74.6027 48.8804 74.5509 48.765 74.4976 48.646C74.0336 47.5853 73.9461 46.4134 74.255 45.2967C74.7062 44.3841 75.5703 43.6674 76.5504 43.2215C77.6339 42.9179 79.0349 42.9032 80.0834 43.3231ZM77.2696 45.9137C76.9161 46.3806 76.8952 46.6251 76.9976 47.1806C77.2486 47.5587 77.2486 47.5587 77.667 47.7857C78.2816 47.8782 78.5521 47.8593 79.0687 47.5398C79.4222 47.0729 79.4431 46.8284 79.3407 46.2729C79.0897 45.8947 79.0897 45.8947 78.6712 45.6678C78.0567 45.5753 77.7862 45.5942 77.2696 45.9137ZM74.1837 52.8155C72.9964 54.3004 72.7877 55.8356 72.9808 57.6184C73.3586 59.2492 74.4443 60.5094 75.9221 61.4747C77.5918 62.4127 79.4699 62.5685 81.3746 62.208C83.2465 61.6598 84.6634 60.464 85.5869 58.9107C86.2649 57.4815 86.3032 55.7766 85.7738 54.2998C85.0079 52.6853 83.6271 51.4372 81.8407 50.7449C78.9257 49.8913 76.1263 50.7317 74.1837 52.8155Z" fill="black"/>
<path d="M71.6305 66.2648C72.0187 66.5426 72.3852 66.8313 72.7494 67.1428C72.8817 67.2475 73.0141 67.3523 73.1504 67.4603C74.6124 68.7656 75.7882 71.0462 75.9634 73.0675C76.0389 74.9027 76.0709 76.6641 75.2924 78.3478C75.2195 78.5087 75.1466 78.6695 75.0714 78.8352C73.8429 81.3593 71.9078 82.7863 69.3861 83.7178C67.4654 84.1866 65.1523 84.1093 63.3717 83.1978C63.2189 83.1211 63.066 83.0443 62.9086 82.9652C60.5097 81.6726 59.1534 79.6365 58.2682 76.9831C57.8227 74.9622 57.8962 72.5284 58.7624 70.6548C58.8353 70.494 58.9083 70.3332 58.9834 70.1675C60.2111 67.6452 62.1475 66.2107 64.6706 65.2855C66.9968 64.7135 69.5673 64.9817 71.6305 66.2648ZM61.9711 70.5294C60.8435 72.1711 60.6453 73.8683 60.8286 75.8392C61.1875 77.6421 62.2185 79.0354 63.6219 80.1026C65.2075 81.1396 66.9912 81.3119 68.8 80.9133C70.5777 80.3073 71.9233 78.9852 72.8003 77.268C73.4442 75.6879 73.4805 73.803 72.9778 72.1704C72.2504 70.3854 70.9391 69.0057 69.2427 68.2403C66.4744 67.2966 63.8158 68.2257 61.9711 70.5294Z" fill="black"/>
<path d="M45.1202 41.0128C45.4656 41.0121 45.8106 41.0062 46.156 41.0001C47.6426 40.996 48.6243 41.0764 49.7712 42.0308C49.8623 42.1354 49.9535 42.24 50.0474 42.3478C50.1881 42.5041 50.1881 42.5041 50.3317 42.6636C50.9825 43.5605 50.9689 44.399 50.9715 45.4543C50.9732 45.6941 50.9732 45.6941 50.9749 45.9388C50.9766 46.2766 50.9774 46.6144 50.9773 46.9522C50.9781 47.4664 50.9842 47.9804 50.9906 48.4946C50.9916 48.8236 50.9923 49.1526 50.9926 49.4817C50.9951 49.6342 50.9975 49.7867 51 49.9439C50.9917 51.1054 50.7184 51.9606 49.9053 52.8417C49.7952 52.9283 49.685 53.0149 49.5716 53.1041C49.4618 53.1932 49.3521 53.2823 49.2391 53.374C48.1889 54.0612 47.1135 53.9875 45.8798 53.9872C45.5344 53.9879 45.1894 53.9938 44.844 53.9999C43.3574 54.004 42.3757 53.9236 41.2288 52.9692C41.1377 52.8646 41.0465 52.76 40.9526 52.6522C40.8588 52.548 40.765 52.4438 40.6683 52.3364C40.0175 51.4395 40.0311 50.601 40.0285 49.5457C40.0274 49.3858 40.0263 49.2259 40.0251 49.0612C40.0234 48.7234 40.0226 48.3856 40.0227 48.0478C40.0219 47.5336 40.0158 47.0196 40.0094 46.5054C40.0084 46.1764 40.0077 45.8474 40.0074 45.5183C40.0037 45.2895 40.0037 45.2895 40 45.0561C40.0083 43.8946 40.2816 43.0394 41.0947 42.1583C41.2048 42.0717 41.315 41.9851 41.4284 41.8959C41.5382 41.8068 41.6479 41.7177 41.7609 41.626C42.8111 40.9388 43.8865 41.0125 45.1202 41.0128ZM43.1311 44.1255C42.6105 45.0569 42.736 46.1081 42.7393 47.1335C42.7398 47.4883 42.7358 47.8429 42.7315 48.1977C42.7312 48.4252 42.731 48.6528 42.7312 48.8803C42.7307 49.0856 42.7302 49.2908 42.7297 49.5023C42.7981 50.1203 42.9588 50.5085 43.3003 51.0352C43.9788 51.4338 44.7122 51.4102 45.4894 51.4068C45.6646 51.4107 45.6646 51.4107 45.8434 51.4147C46.6431 51.4154 47.2065 51.3049 47.8689 50.8745C48.3895 49.9431 48.264 48.8919 48.2607 47.8665C48.2602 47.5117 48.2642 47.1571 48.2685 46.8023C48.2688 46.5748 48.269 46.3472 48.2688 46.1197C48.2693 45.9144 48.2698 45.7092 48.2703 45.4977C48.2019 44.8797 48.0412 44.4915 47.6997 43.9648C47.0212 43.5662 46.2878 43.5898 45.5106 43.5932C45.3938 43.5906 45.277 43.588 45.1566 43.5853C44.3569 43.5846 43.7935 43.6951 43.1311 44.1255Z" fill="black"/>
<path d="M53.0891 34.0672C53.9531 34.0525 54.8169 34.0418 55.681 34.0346C55.9747 34.0317 56.2683 34.0276 56.562 34.0225C56.9851 34.0152 57.4081 34.0119 57.8313 34.0093C58.0269 34.0047 58.0269 34.0047 58.2265 34C59.0924 33.9997 59.5679 34.1447 60.2591 34.6605C61.0317 35.3731 60.9956 36.1112 61 37.0614C60.9975 37.248 60.995 37.4346 60.9924 37.6269C60.9949 37.8135 60.9974 38.0001 61 38.1924C60.992 39.9173 60.992 39.9173 60.2591 40.5933C59.3909 41.3275 58.5467 41.2578 57.4278 41.2236C57.2612 41.221 57.0946 41.2183 56.923 41.2155C56.514 41.2086 56.1052 41.1979 55.6964 41.1866C55.6964 41.9697 55.6964 42.7528 55.6964 43.5597C57.4172 43.5597 59.1379 43.5597 60.9109 43.5597C60.9109 44.3428 60.9109 45.1259 60.9109 45.9328C60.0469 45.9475 59.1831 45.9582 58.319 45.9654C58.0253 45.9683 57.7317 45.9724 57.438 45.9775C57.0149 45.9848 56.5919 45.9881 56.1687 45.9907C55.9731 45.9953 55.9731 45.9953 55.7735 46C54.9075 46.0003 54.4321 45.8553 53.7409 45.3395C52.9683 44.6269 53.0044 43.8888 53 42.9386C53.0025 42.752 53.005 42.5654 53.0076 42.3731C53.0051 42.1865 53.0026 41.9999 53 41.8076C53.008 40.0827 53.008 40.0827 53.7409 39.4067C54.6091 38.6725 55.4533 38.7422 56.5722 38.7764C56.7388 38.779 56.9054 38.7817 57.077 38.7845C57.486 38.7914 57.8948 38.8021 58.3036 38.8134C58.3036 38.0303 58.3036 37.2472 58.3036 36.4403C56.5828 36.4403 54.862 36.4403 53.0891 36.4403C53.0891 35.6572 53.0891 34.8741 53.0891 34.0672Z" fill="black"/>
<path d="M90.4546 73.58C91.7436 74.4212 92.5451 75.5856 92.943 77.1738C93.0972 79.0503 92.997 80.6791 91.9003 82.2139C91.0245 83.2402 89.9351 83.8679 88.6535 83.993C87.4515 84.0223 86.4123 83.9917 85.374 83.2599C85.2649 83.1863 85.1558 83.1126 85.0434 83.0367C83.9766 82.2454 83.3973 81.2312 83.057 79.8787C82.9028 78.0022 83.003 76.3734 84.0997 74.8387C85.6904 72.9746 88.3547 72.4771 90.4546 73.58ZM85.934 77.1104C85.5935 77.8843 85.5598 78.5272 85.683 79.3716C86.0428 80.1896 86.4803 80.6683 87.2277 81.0622C87.9991 81.1969 88.5866 81.16 89.2937 80.7874C89.8473 80.2392 90.2545 79.8002 90.3762 78.9661C90.4157 78.0052 90.3072 77.4021 89.6992 76.6666C89.0271 76.0011 88.4761 75.8824 87.5981 75.9257C86.836 76.0588 86.4349 76.5045 85.934 77.1104Z" fill="black"/>
<path d="M77.1312 85.3629C77.967 85.9368 78.6443 86.8284 78.9338 87.8897C79.0493 89.1671 79.0952 90.4359 78.3598 91.4761C77.6704 92.2986 77.0452 92.879 76.0253 92.998C74.8032 93.0133 73.958 92.9625 73.0556 91.9862C72.1399 90.8607 71.9772 89.9761 72.0024 88.4514C72.1022 87.1697 72.6269 86.496 73.467 85.6801C74.4807 84.8866 76.0056 84.7963 77.1312 85.3629ZM74.7187 88.1546C74.4156 88.6578 74.3977 88.9213 74.4855 89.5199C74.7007 89.9274 74.7007 89.9274 75.0595 90.172C75.5863 90.2717 75.8183 90.2514 76.2612 89.9071C76.5643 89.4039 76.5822 89.1403 76.4944 88.5418C76.2792 88.1342 76.2792 88.1342 75.9204 87.8897C75.3936 87.79 75.1616 87.8103 74.7187 88.1546Z" fill="black"/>
<path d="M68.3981 70.3629C69.1146 70.9368 69.6951 71.8284 69.9433 72.8897C70.0423 74.1671 70.0816 75.4359 69.4513 76.4761C68.8604 77.2986 68.3244 77.879 67.4502 77.998C66.4028 78.0133 65.6783 77.9625 64.9048 76.9862C64.1199 75.8607 63.9804 74.9761 64.002 73.4514C64.0876 72.1697 64.5373 71.496 65.2575 70.6801C66.1263 69.8866 67.4334 69.7963 68.3981 70.3629ZM66.3303 73.1546C66.0705 73.6578 66.0552 73.9213 66.1304 74.5199C66.3149 74.9274 66.3149 74.9274 66.6224 75.172C67.074 75.2717 67.2728 75.2514 67.6525 74.9071C67.9123 74.4039 67.9276 74.1403 67.8524 73.5418C67.6679 73.1342 67.6679 73.1342 67.3604 72.8897C66.9088 72.79 66.71 72.8103 66.3303 73.1546Z" fill="black"/>
<path d="M67.1312 57.3176C67.967 57.8197 68.6443 58.5999 68.9338 59.5285C69.0493 60.6462 69.0952 61.7564 68.3598 62.6666C67.6704 63.3862 67.0452 63.8941 66.0253 63.9983C64.8032 64.0117 63.958 63.9672 63.0556 63.1129C62.1399 62.1281 61.9772 61.3541 62.0024 60.0199C62.1022 58.8985 62.6269 58.309 63.467 57.5951C64.4807 56.9008 66.0056 56.8218 67.1312 57.3176ZM64.7187 59.7603C64.4156 60.2006 64.3977 60.4312 64.4855 60.9549C64.7007 61.3115 64.7007 61.3115 65.0595 61.5255C65.5863 61.6128 65.8183 61.5949 66.2612 61.2937C66.5643 60.8534 66.5822 60.6228 66.4944 60.0991C66.2792 59.7425 66.2792 59.7425 65.9204 59.5285C65.3936 59.4412 65.1616 59.459 64.7187 59.7603Z" fill="black"/>
<path d="M81.1312 53.3176C81.967 53.8197 82.6443 54.5999 82.9338 55.5285C83.0493 56.6462 83.0952 57.7564 82.3598 58.6666C81.6704 59.3862 81.0452 59.8941 80.0253 59.9983C78.8032 60.0117 77.958 59.9672 77.0556 59.1129C76.1399 58.1281 75.9772 57.3541 76.0024 56.0199C76.1022 54.8985 76.6269 54.309 77.467 53.5951C78.4807 52.9008 80.0056 52.8218 81.1312 53.3176ZM78.7187 55.7603C78.4156 56.2006 78.3977 56.4312 78.4855 56.9549C78.7007 57.3115 78.7007 57.3115 79.0595 57.5255C79.5863 57.6128 79.8183 57.5949 80.2612 57.2937C80.5643 56.8534 80.5822 56.6228 80.4944 56.0991C80.2792 55.7425 80.2792 55.7425 79.9204 55.5285C79.3936 55.4412 79.1616 55.459 78.7187 55.7603Z" fill="black"/>
</g>
<defs>
<filter id="filter0_d_423_1614" x="0" y="0" width="124" height="124" filterUnits="userSpaceOnUse" color-interpolation-filters="sRGB">
<feFlood flood-opacity="0" result="BackgroundImageFix"/>
<feColorMatrix in="SourceAlpha" type="matrix" values="0 0 0 0 0 0 0 0 0 0 0 0 0 0 0 0 0 0 127 0" result="hardAlpha"/>
<feOffset dy="4"/>
<feGaussianBlur stdDeviation="2"/>
<feComposite in2="hardAlpha" operator="out"/>
<feColorMatrix type="matrix" values="0 0 0 0 0 0 0 0 0 0 0 0 0 0 0 0 0 0 0.25 0"/>
<feBlend mode="normal" in2="BackgroundImageFix" result="effect1_dropShadow_423_1614"/>
<feBlend mode="normal" in="SourceGraphic" in2="effect1_dropShadow_423_1614" result="shape"/>
</filter>
<clipPath id="clip0_423_1614">
<rect width="77" height="77" fill="white" transform="translate(24 20)"/>
</clipPath>
</defs>
</svg>
