<svg width="124" height="124" viewBox="0 0 124 124" fill="none" xmlns="http://www.w3.org/2000/svg">
<g filter="url(#filter0_d_423_1597)">
<rect x="4" width="116" height="116" fill="white"/>
</g>
<path opacity="0.25" d="M57.4375 85.125C75.8354 85.125 90.75 70.9381 90.75 53.4375C90.75 35.9369 75.8354 21.75 57.4375 21.75C39.0396 21.75 24.125 35.9369 24.125 53.4375C24.125 70.9381 39.0396 85.125 57.4375 85.125Z" fill="#C16AFF"/>
<path opacity="0.5" d="M72.6475 71.67C80.599 71.67 87.045 65.2239 87.045 57.2725C87.045 49.3211 80.599 42.875 72.6475 42.875C64.6961 42.875 58.25 49.3211 58.25 57.2725C58.25 65.2239 64.6961 71.67 72.6475 71.67Z" fill="#C16AFF"/>
<path opacity="0.5" d="M72.875 91.625C87.2345 91.625 98.875 79.9845 98.875 65.625C98.875 51.2655 87.2345 39.625 72.875 39.625C58.5155 39.625 46.875 51.2655 46.875 65.625C46.875 79.9845 58.5155 91.625 72.875 91.625Z" fill="#EF643B"/>
<path opacity="0.5" d="M71.25 75.375C85.6095 75.375 97.25 63.3706 97.25 48.5625C97.25 33.7544 85.6095 21.75 71.25 21.75C56.8905 21.75 45.25 33.7544 45.25 48.5625C45.25 63.3706 56.8905 75.375 71.25 75.375Z" fill="#FFEB3B"/>
<path d="M80.5938 65.0154C76.9375 61.3592 65.9688 60.4541 64.1406 58.7543C62.995 57.6932 62.5676 56.1104 62.4084 53.7282C63.1591 53.2521 63.7734 52.7402 64.1406 52.2169C65.3252 50.5334 66.1215 47.8587 66.6642 44.8687C66.7244 44.8784 66.7796 44.9044 66.8414 44.9044C68.1235 44.9044 69.3829 42.8569 69.6575 40.3333C69.9256 37.8097 69.1131 35.7622 67.8375 35.7622C67.766 35.7622 67.6961 35.7914 67.6263 35.8028C67.7806 32.7917 67.7952 30.1088 67.7952 28.4497C67.7952 21.1372 61.396 15.5391 54.1989 15.5391C47.0018 15.5391 46.6572 20.4514 46.6572 20.4514C44.2571 21.1372 42.2015 22.6224 42.2015 28.4497C42.2015 30.1088 42.2178 32.7933 42.3721 35.8028C42.3022 35.7914 42.234 35.7622 42.1641 35.7622C40.8836 35.7622 40.0679 37.8097 40.3425 40.3333C40.6139 42.8569 41.8765 44.9044 43.1521 44.9044C43.2155 44.9044 43.2724 44.8768 43.3341 44.8671C43.8752 47.8571 44.6715 50.5334 45.8577 52.2169C46.2266 52.7386 46.8409 53.2537 47.59 53.7282C47.4291 56.1104 47.0034 57.6916 45.8577 58.7543C44.0313 60.4541 33.0625 61.3592 29.4062 65.0154C25.75 68.6717 25.75 77.8123 25.75 79.6404C25.75 81.3174 31.9071 84.5349 49.8699 85.0533C51.165 85.0891 52.1303 84.3221 52.2099 82.9928C52.5641 77.0746 53.9389 66.2683 53.9389 65.6248C53.9389 64.7359 52.3561 62.5649 52.3561 61.6403C52.3561 60.7157 54.2801 57.4998 55 57.4998C55.7199 57.4998 57.6423 60.7157 57.6423 61.6403C57.6423 62.5649 56.0595 64.7359 56.0595 65.6248C56.0595 66.2683 57.4359 77.0762 57.7885 82.9928C57.8681 84.3204 58.8334 85.0891 60.1269 85.0533C78.0929 84.5349 84.25 81.3174 84.25 79.6404C84.25 77.8123 84.25 68.6717 80.5938 65.0154Z" fill="black"/>
<defs>
<filter id="filter0_d_423_1597" x="0" y="0" width="124" height="124" filterUnits="userSpaceOnUse" color-interpolation-filters="sRGB">
<feFlood flood-opacity="0" result="BackgroundImageFix"/>
<feColorMatrix in="SourceAlpha" type="matrix" values="0 0 0 0 0 0 0 0 0 0 0 0 0 0 0 0 0 0 127 0" result="hardAlpha"/>
<feOffset dy="4"/>
<feGaussianBlur stdDeviation="2"/>
<feComposite in2="hardAlpha" operator="out"/>
<feColorMatrix type="matrix" values="0 0 0 0 0 0 0 0 0 0 0 0 0 0 0 0 0 0 0.25 0"/>
<feBlend mode="normal" in2="BackgroundImageFix" result="effect1_dropShadow_423_1597"/>
<feBlend mode="normal" in="SourceGraphic" in2="effect1_dropShadow_423_1597" result="shape"/>
</filter>
</defs>
</svg>
