<svg width="124" height="124" viewBox="0 0 124 124" fill="none" xmlns="http://www.w3.org/2000/svg">
<g filter="url(#filter0_d_423_1591)">
<rect x="4" width="116" height="116" fill="white"/>
</g>
<path opacity="0.25" d="M57.1563 88.875C77.677 88.875 94.3125 73.233 94.3125 53.9375C94.3125 34.642 77.677 19 57.1563 19C36.6355 19 20 34.642 20 53.9375C20 73.233 36.6355 88.875 57.1563 88.875Z" fill="#C16AFF"/>
<path opacity="0.5" d="M74.1213 74.0398C82.9902 74.0398 90.18 66.9327 90.18 58.1657C90.18 49.3987 82.9902 42.2915 74.1213 42.2915C65.2523 42.2915 58.0625 49.3987 58.0625 58.1657C58.0625 66.9327 65.2523 74.0398 74.1213 74.0398Z" fill="#C16AFF"/>
<path opacity="0.5" d="M74.375 96.0418C90.3913 96.0418 103.375 83.2074 103.375 67.3752C103.375 51.5429 90.3913 38.7085 74.375 38.7085C58.3587 38.7085 45.375 51.5429 45.375 67.3752C45.375 83.2074 58.3587 96.0418 74.375 96.0418Z" fill="#EF643B"/>
<path opacity="0.5" d="M72.5625 78.125C88.5788 78.125 101.562 64.8894 101.562 48.5625C101.562 32.2356 88.5788 19 72.5625 19C56.5462 19 43.5625 32.2356 43.5625 48.5625C43.5625 64.8894 56.5462 78.125 72.5625 78.125Z" fill="#FFEB3B"/>
<path d="M81.625 22.5835H27.25C24.2467 22.5835 21.8125 24.9897 21.8125 27.9585V74.5418C21.8125 77.5106 24.2467 79.9168 27.25 79.9168H81.625C84.6283 79.9168 87.0625 77.5106 87.0625 74.5418V27.9585C87.0625 24.9897 84.6283 22.5835 81.625 22.5835ZM83.4375 74.5418C83.4375 75.5326 82.6273 76.3335 81.625 76.3335H27.25C26.2495 76.3335 25.4375 75.5326 25.4375 74.5418V36.9168H83.4375V74.5418Z" fill="black"/>
<path d="M46.9159 65.6048C45.9788 65.7446 45.3082 66.5759 45.3807 67.5094C45.4514 68.4446 46.2398 69.1667 47.1878 69.1667H61.6878C62.6357 69.1667 63.4241 68.4446 63.4948 67.5094C63.5655 66.5741 62.8967 65.7446 61.9578 65.6048L58.0628 65.0207V44.0833C58.0628 43.4383 57.713 42.8417 57.1438 42.5246C56.5747 42.2057 55.8787 42.2146 55.3168 42.5479L46.2543 47.9229C45.3952 48.4317 45.1179 49.5318 45.6326 50.381C46.1474 51.2303 47.2603 51.5044 48.1194 50.9956L50.8128 49.3974V65.019L46.9159 65.6048Z" fill="black"/>
<defs>
<filter id="filter0_d_423_1591" x="0" y="0" width="124" height="124" filterUnits="userSpaceOnUse" color-interpolation-filters="sRGB">
<feFlood flood-opacity="0" result="BackgroundImageFix"/>
<feColorMatrix in="SourceAlpha" type="matrix" values="0 0 0 0 0 0 0 0 0 0 0 0 0 0 0 0 0 0 127 0" result="hardAlpha"/>
<feOffset dy="4"/>
<feGaussianBlur stdDeviation="2"/>
<feComposite in2="hardAlpha" operator="out"/>
<feColorMatrix type="matrix" values="0 0 0 0 0 0 0 0 0 0 0 0 0 0 0 0 0 0 0.25 0"/>
<feBlend mode="normal" in2="BackgroundImageFix" result="effect1_dropShadow_423_1591"/>
<feBlend mode="normal" in="SourceGraphic" in2="effect1_dropShadow_423_1591" result="shape"/>
</filter>
</defs>
</svg>
