<svg width="124" height="124" viewBox="0 0 124 124" fill="none" xmlns="http://www.w3.org/2000/svg">
<g filter="url(#filter0_d_423_1588)">
<rect x="4" width="116" height="116" fill="white"/>
</g>
<path opacity="0.25" d="M76.001 65.7091C87.668 65.7091 97.126 56.7316 97.126 45.6571C97.126 34.5825 87.668 25.605 76.001 25.605C64.334 25.605 54.876 34.5825 54.876 45.6571C54.876 56.7316 64.334 65.7091 76.001 65.7091Z" fill="#C16AFF"/>
<path opacity="0.5" d="M79.251 59.2928C86.4307 59.2928 92.251 53.188 92.251 45.6574C92.251 38.1268 86.4307 32.022 79.251 32.022C72.0712 32.022 66.251 38.1268 66.251 45.6574C66.251 53.188 72.0712 59.2928 79.251 59.2928Z" fill="#C16AFF"/>
<path opacity="0.5" d="M74.376 91.3758C88.7355 91.3758 100.376 79.8845 100.376 65.7091C100.376 51.5338 88.7355 40.0425 74.376 40.0425C60.0165 40.0425 48.376 51.5338 48.376 65.7091C48.376 79.8845 60.0165 91.3758 74.376 91.3758Z" fill="#EF643B"/>
<path opacity="0.5" d="M54.0635 86.5635C70.6666 86.5635 84.126 73.6357 84.126 57.6885C84.126 41.7413 70.6666 28.8135 54.0635 28.8135C37.4604 28.8135 24.001 41.7413 24.001 57.6885C24.001 73.6357 37.4604 86.5635 54.0635 86.5635Z" fill="#FFEB3B"/>
<path d="M27.3321 27.2893C22.8893 31.6751 22.8893 38.7848 27.3321 43.169L43.4196 27.2893C38.9768 22.9036 31.7748 22.9036 27.3321 27.2893Z" fill="black"/>
<path d="M85.6699 27.2893C81.2271 22.9036 74.0251 22.9036 69.584 27.2893L85.6699 43.169C90.1126 38.7848 90.1126 31.6751 85.6699 27.2893Z" fill="black"/>
<path d="M56.5004 30.4175C42.1419 30.4175 30.5004 41.9097 30.5004 56.0841C30.5004 62.6693 33.0354 68.6576 37.1678 73.2022L30.9765 79.3141C30.3412 79.9413 30.3412 80.9552 30.9765 81.5824C31.2934 81.8952 31.7094 82.0524 32.1254 82.0524C32.5414 82.0524 32.9574 81.8952 33.2743 81.5824L39.4785 75.4577C44.0415 79.367 49.9842 81.7508 56.5004 81.7508C63.0167 81.7508 68.9576 79.367 73.5223 75.4561L79.7265 81.5808C80.0434 81.8936 80.4594 82.0508 80.8754 82.0508C81.2914 82.0508 81.7074 81.8936 82.0243 81.5808C82.6597 80.9535 82.6597 79.9397 82.0243 79.3125L75.833 73.2006C79.9654 68.6576 82.5004 62.6693 82.5004 56.0841C82.5004 41.9097 70.8589 30.4175 56.5004 30.4175ZM58.1254 57.6883H46.7504C45.8534 57.6883 45.1254 56.9713 45.1254 56.0841C45.1254 55.197 45.8534 54.48 46.7504 54.48H54.8754V36.8341C54.8754 35.9486 55.6034 35.23 56.5004 35.23C57.3974 35.23 58.1254 35.9486 58.1254 36.8341V57.6883Z" fill="black"/>
<defs>
<filter id="filter0_d_423_1588" x="0" y="0" width="124" height="124" filterUnits="userSpaceOnUse" color-interpolation-filters="sRGB">
<feFlood flood-opacity="0" result="BackgroundImageFix"/>
<feColorMatrix in="SourceAlpha" type="matrix" values="0 0 0 0 0 0 0 0 0 0 0 0 0 0 0 0 0 0 127 0" result="hardAlpha"/>
<feOffset dy="4"/>
<feGaussianBlur stdDeviation="2"/>
<feComposite in2="hardAlpha" operator="out"/>
<feColorMatrix type="matrix" values="0 0 0 0 0 0 0 0 0 0 0 0 0 0 0 0 0 0 0.25 0"/>
<feBlend mode="normal" in2="BackgroundImageFix" result="effect1_dropShadow_423_1588"/>
<feBlend mode="normal" in="SourceGraphic" in2="effect1_dropShadow_423_1588" result="shape"/>
</filter>
</defs>
</svg>
