<svg width="124" height="124" viewBox="0 0 124 124" fill="none" xmlns="http://www.w3.org/2000/svg">
<g filter="url(#filter0_d_423_1593)">
<rect x="4" width="116" height="116" fill="white"/>
</g>
<path opacity="0.25" d="M77.0003 66.3332C90.1631 66.3332 100.834 56.3063 100.834 43.9373C100.834 31.5684 90.1631 21.5415 77.0003 21.5415C63.8375 21.5415 53.167 31.5684 53.167 43.9373C53.167 56.3063 63.8375 66.3332 77.0003 66.3332Z" fill="#C16AFF"/>
<path opacity="0.5" d="M80.6667 59.1668C88.7669 59.1668 95.3333 52.3485 95.3333 43.9377C95.3333 35.5269 88.7669 28.7085 80.6667 28.7085C72.5665 28.7085 66 35.5269 66 43.9377C66 52.3485 72.5665 59.1668 80.6667 59.1668Z" fill="#C16AFF"/>
<path opacity="0.5" d="M75.1663 94.9998C91.3668 94.9998 104.5 82.1654 104.5 66.3332C104.5 50.5009 91.3668 37.6665 75.1663 37.6665C58.9659 37.6665 45.833 50.5009 45.833 66.3332C45.833 82.1654 58.9659 94.9998 75.1663 94.9998Z" fill="#EF643B"/>
<path opacity="0.5" d="M52.2497 89.625C70.9814 89.625 86.1663 75.1861 86.1663 57.375C86.1663 39.5639 70.9814 25.125 52.2497 25.125C33.518 25.125 18.333 39.5639 18.333 57.375C18.333 75.1861 33.518 89.625 52.2497 89.625Z" fill="#FFEB3B"/>
<path d="M101.825 61.9481C101.544 61.1221 101.202 60.3374 100.804 59.592C98.1015 54.5091 93.0158 45.0114 90.2237 39.7529C87.3618 34.3743 80.848 31.6689 74.7778 33.6469C73.632 34.0196 72.5778 34.5373 71.6227 35.1698C70.1212 34.1253 67.351 33.0037 62.3368 33.0037C57.3227 33.0037 54.5525 34.1253 53.0492 35.1698C52.0958 34.5373 51.0417 34.0213 49.8958 33.6469C43.8257 31.6689 37.3118 34.3743 34.4518 39.7529C31.6597 45.0114 26.574 54.5073 23.8717 59.592C23.4738 60.3374 23.1328 61.1221 22.8523 61.9481C19.9685 70.3958 24.6398 79.5261 33.2858 82.3426C39.598 84.3976 46.2713 82.5074 50.5412 78.0551C50.5522 78.0444 50.5632 78.0516 50.576 78.039C53.1078 75.3838 56.12 72.4204 62.3368 72.4204C68.5518 72.4204 71.5658 75.3838 74.1013 78.0408C74.1142 78.0551 74.1252 78.0462 74.138 78.0569C78.4078 82.5074 85.0793 84.3994 91.3915 82.3444C100.036 79.5261 104.707 70.3958 101.825 61.9481ZM38.5035 77.7954C32.4297 77.7954 27.5035 72.9811 27.5035 67.0454C27.5035 61.1096 32.4297 56.2954 38.5035 56.2954C44.5773 56.2954 49.5035 61.1096 49.5035 67.0454C49.5035 72.9811 44.5773 77.7954 38.5035 77.7954ZM86.1702 77.7954C80.0963 77.7954 75.1702 72.9811 75.1702 67.0454C75.1702 61.1096 80.0963 56.2954 86.1702 56.2954C92.244 56.2954 97.1702 61.1096 97.1702 67.0454C97.1702 72.9811 92.244 77.7954 86.1702 77.7954Z" fill="black"/>
<defs>
<filter id="filter0_d_423_1593" x="0" y="0" width="124" height="124" filterUnits="userSpaceOnUse" color-interpolation-filters="sRGB">
<feFlood flood-opacity="0" result="BackgroundImageFix"/>
<feColorMatrix in="SourceAlpha" type="matrix" values="0 0 0 0 0 0 0 0 0 0 0 0 0 0 0 0 0 0 127 0" result="hardAlpha"/>
<feOffset dy="4"/>
<feGaussianBlur stdDeviation="2"/>
<feComposite in2="hardAlpha" operator="out"/>
<feColorMatrix type="matrix" values="0 0 0 0 0 0 0 0 0 0 0 0 0 0 0 0 0 0 0.25 0"/>
<feBlend mode="normal" in2="BackgroundImageFix" result="effect1_dropShadow_423_1593"/>
<feBlend mode="normal" in="SourceGraphic" in2="effect1_dropShadow_423_1593" result="shape"/>
</filter>
</defs>
</svg>
